<mxfile host="app.diagrams.net" modified="2023-10-12T02:35:34.486Z" agent="Mozilla/5.0 (Macintosh; Intel Mac OS X 10_15_7) AppleWebKit/537.36 (KHTML, like Gecko) Chrome/117.0.0.0 Safari/537.36" etag="xC4ESsPg4Vm0py9e0xTF" version="22.0.4" type="github">
  <diagram name="第 1 页" id="OrRKJHkGYLy3WlFda9Tv">
    <mxGraphModel dx="1834" dy="790" grid="1" gridSize="10" guides="1" tooltips="1" connect="1" arrows="1" fold="1" page="0" pageScale="1" pageWidth="827" pageHeight="1169" math="0" shadow="0">
      <root>
        <mxCell id="0" />
        <mxCell id="1" parent="0" />
        <mxCell id="bLLDddUYPioC8cufe7mP-6" value="" style="rounded=0;whiteSpace=wrap;html=1;dashed=1;strokeColor=#66FFFF;strokeWidth=5;dashPattern=1 1;" vertex="1" parent="1">
          <mxGeometry x="-70" y="205" width="295" height="70" as="geometry" />
        </mxCell>
        <mxCell id="bLLDddUYPioC8cufe7mP-4" style="edgeStyle=orthogonalEdgeStyle;rounded=0;orthogonalLoop=1;jettySize=auto;html=1;entryX=0;entryY=0.5;entryDx=0;entryDy=0;" edge="1" parent="1" source="bLLDddUYPioC8cufe7mP-1" target="bLLDddUYPioC8cufe7mP-2">
          <mxGeometry relative="1" as="geometry" />
        </mxCell>
        <mxCell id="bLLDddUYPioC8cufe7mP-1" value="" style="image;html=1;image=img/lib/clip_art/people/Suit_Man_128x128.png" vertex="1" parent="1">
          <mxGeometry x="-180" y="200" width="80" height="80" as="geometry" />
        </mxCell>
        <mxCell id="bLLDddUYPioC8cufe7mP-5" style="edgeStyle=orthogonalEdgeStyle;rounded=0;orthogonalLoop=1;jettySize=auto;html=1;entryX=0;entryY=0.5;entryDx=0;entryDy=0;" edge="1" parent="1" source="bLLDddUYPioC8cufe7mP-2" target="bLLDddUYPioC8cufe7mP-3">
          <mxGeometry relative="1" as="geometry" />
        </mxCell>
        <mxCell id="bLLDddUYPioC8cufe7mP-2" value="邀约管理" style="rounded=1;whiteSpace=wrap;html=1;fontSize=16;" vertex="1" parent="1">
          <mxGeometry x="-50" y="220" width="110" height="40" as="geometry" />
        </mxCell>
        <mxCell id="bLLDddUYPioC8cufe7mP-8" value="" style="edgeStyle=orthogonalEdgeStyle;rounded=0;orthogonalLoop=1;jettySize=auto;html=1;" edge="1" parent="1" source="bLLDddUYPioC8cufe7mP-3" target="bLLDddUYPioC8cufe7mP-7">
          <mxGeometry relative="1" as="geometry" />
        </mxCell>
        <mxCell id="bLLDddUYPioC8cufe7mP-9" value="" style="edgeStyle=orthogonalEdgeStyle;rounded=0;orthogonalLoop=1;jettySize=auto;html=1;" edge="1" parent="1" source="bLLDddUYPioC8cufe7mP-3" target="bLLDddUYPioC8cufe7mP-7">
          <mxGeometry relative="1" as="geometry" />
        </mxCell>
        <mxCell id="bLLDddUYPioC8cufe7mP-10" value="" style="edgeStyle=orthogonalEdgeStyle;rounded=0;orthogonalLoop=1;jettySize=auto;html=1;" edge="1" parent="1" source="bLLDddUYPioC8cufe7mP-3" target="bLLDddUYPioC8cufe7mP-7">
          <mxGeometry relative="1" as="geometry" />
        </mxCell>
        <mxCell id="bLLDddUYPioC8cufe7mP-12" style="edgeStyle=orthogonalEdgeStyle;rounded=0;orthogonalLoop=1;jettySize=auto;html=1;entryX=0;entryY=0.5;entryDx=0;entryDy=0;" edge="1" parent="1" source="bLLDddUYPioC8cufe7mP-3" target="bLLDddUYPioC8cufe7mP-11">
          <mxGeometry relative="1" as="geometry" />
        </mxCell>
        <mxCell id="bLLDddUYPioC8cufe7mP-3" value="简历线索" style="rounded=1;whiteSpace=wrap;html=1;fontSize=16;" vertex="1" parent="1">
          <mxGeometry x="100" y="220" width="110" height="40" as="geometry" />
        </mxCell>
        <mxCell id="bLLDddUYPioC8cufe7mP-14" value="" style="edgeStyle=orthogonalEdgeStyle;rounded=0;orthogonalLoop=1;jettySize=auto;html=1;" edge="1" parent="1" source="bLLDddUYPioC8cufe7mP-7" target="bLLDddUYPioC8cufe7mP-13">
          <mxGeometry relative="1" as="geometry" />
        </mxCell>
        <mxCell id="bLLDddUYPioC8cufe7mP-7" value="主投简历-10条" style="rounded=1;whiteSpace=wrap;html=1;fontSize=16;" vertex="1" parent="1">
          <mxGeometry x="280" y="190" width="130" height="40" as="geometry" />
        </mxCell>
        <mxCell id="bLLDddUYPioC8cufe7mP-16" value="" style="edgeStyle=orthogonalEdgeStyle;rounded=0;orthogonalLoop=1;jettySize=auto;html=1;" edge="1" parent="1" source="bLLDddUYPioC8cufe7mP-11" target="bLLDddUYPioC8cufe7mP-15">
          <mxGeometry relative="1" as="geometry" />
        </mxCell>
        <mxCell id="bLLDddUYPioC8cufe7mP-11" value="付费简历推荐-10条" style="rounded=1;whiteSpace=wrap;html=1;fontSize=16;" vertex="1" parent="1">
          <mxGeometry x="280" y="250" width="130" height="40" as="geometry" />
        </mxCell>
        <mxCell id="bLLDddUYPioC8cufe7mP-13" value="没有不展示" style="rounded=1;whiteSpace=wrap;html=1;fontSize=16;" vertex="1" parent="1">
          <mxGeometry x="440" y="190" width="130" height="40" as="geometry" />
        </mxCell>
        <mxCell id="bLLDddUYPioC8cufe7mP-15" value="没有不展示" style="rounded=1;whiteSpace=wrap;html=1;fontSize=16;" vertex="1" parent="1">
          <mxGeometry x="440" y="250" width="130" height="40" as="geometry" />
        </mxCell>
      </root>
    </mxGraphModel>
  </diagram>
</mxfile>
